# xmcd
# 
# Track frame offsets:
#     150
#     16137
#     33748
#     54414
#     66917
#     80877
#     104493
#     125178
#     143788
#     163171
#     181445
#     195887
# 
# Disc length: 3079
# 
# Revision: 4
# Processed by: cddbd v1.5.2PL0 Copyright (c) Steve Scherf et al.
# Submitted via: fre:ac v1.0.31
# 
DISCID=ad0c050c
DTITLE=Michael Hoppe - Solace
DYEAR=2003
DGENRE=New Age
TTITLE0=This Majestic Land (The Prague Symphony)
TTITLE1=So You (With Martin Tillmann)
TTITLE2=Romance For Violin and Orchestra (The Prague Symphony)
TTITLE3=Lachrymosa (With Heidi Fielding)
TTITLE4=Beloved (With Kenton Youngstrom)
TTITLE5=Renouncement (The Prague Symphony)
TTITLE6=Jude's Theme (With Eugene Fodor)
TTITLE7=Nimbus (The Prague Symphony)
TTITLE8=Elegy (For Joan) (With Andrea Bauer)
TTITLE9=Pie Jesu (With Heidi Fielding and Dwain Briggs)
TTITLE10=Farewell (With Harold Moses and Heidi Fielding)
TTITLE11=The Parting (Performed By Vangelis)
EXTD=YEAR: 2003
EXTT0=
EXTT1=
EXTT2=
EXTT3=
EXTT4=
EXTT5=
EXTT6=
EXTT7=
EXTT8=
EXTT9=
EXTT10=
EXTT11=
PLAYORDER=
